<?xml version="1.0" standalone="no"?>
<!DOCTYPE svg PUBLIC "-//W3C//DTD SVG 20010904//EN"
 "http://www.w3.org/TR/2001/REC-SVG-20010904/DTD/svg10.dtd">
<svg version="1.0" xmlns="http://www.w3.org/2000/svg"
 width="500.000000pt" height="500.000000pt" viewBox="0 0 500.000000 500.000000"
 preserveAspectRatio="xMidYMid meet">

<g transform="translate(0.000000,500.000000) scale(0.100000,-0.100000)"
fill="#000000" stroke="none">
<path d="M2459 3647 c-26 -20 -166 -214 -217 -300 -44 -75 -102 -202 -102
-225 0 -5 11 -14 25 -20 20 -9 27 -9 29 1 29 94 50 147 71 183 14 24 27 44 29
44 2 0 -7 -30 -19 -67 -13 -38 -29 -97 -34 -133 -10 -62 -10 -66 12 -82 l22
-17 -24 6 c-21 5 -23 3 -18 -23 3 -16 9 -56 13 -89 l6 -60 19 65 c10 36 22
103 25 150 4 46 13 100 20 120 8 20 12 24 9 10 -3 -14 -7 -56 -10 -95 l-6 -70
25 46 c14 26 37 93 51 150 22 92 27 77 9 -26 -5 -28 -2 -26 49 30 49 54 56 58
72 45 29 -24 101 -123 139 -190 41 -74 41 -72 21 64 -18 122 -18 143 2 91 39
-103 71 -365 45 -365 -4 0 -14 -21 -21 -47 -13 -52 -62 -166 -67 -160 -2 2 7
37 21 78 15 42 28 109 32 154 5 73 3 85 -20 131 -27 54 -137 207 -158 219 -9
6 -11 0 -6 -24 16 -79 19 -198 7 -303 -21 -200 -31 -168 -25 87 l5 240 -35
-40 c-19 -22 -44 -60 -56 -84 -21 -41 -22 -53 -16 -185 4 -77 9 -159 13 -181
4 -22 4 -38 1 -35 -3 3 -13 62 -22 130 -8 69 -18 140 -22 159 l-6 34 -18 -34
c-10 -19 -18 -46 -19 -61 0 -16 -4 -28 -9 -28 -5 0 -15 -32 -21 -70 -12 -69
-11 -71 20 -137 31 -67 31 -67 6 -43 -30 27 -31 22 -11 -47 16 -55 45 -86 127
-138 94 -59 48 -49 -124 26 -82 36 -158 56 -285 74 l-98 14 102 -3 102 -3 -47
30 -47 30 -157 -6 c-87 -3 -162 -9 -168 -12 -21 -13 30 -85 87 -121 125 -81
221 -107 436 -120 114 -7 116 -7 86 -23 -34 -18 -96 -76 -110 -103 -17 -32 20
-21 67 21 40 35 96 67 162 92 20 8 23 6 18 -9 -4 -12 1 -25 13 -36 18 -17 20
-16 32 19 l13 36 16 -32 16 -31 16 24 c12 18 13 29 6 42 -9 15 -7 17 10 12 16
-6 27 4 56 51 41 66 44 78 16 63 -26 -14 -25 -9 9 42 16 24 41 68 56 98 14 30
31 63 36 72 21 40 49 177 49 240 0 68 0 69 -22 57 -23 -12 -23 -12 -4 9 15 17
18 31 13 67 -12 81 -68 233 -116 309 -48 78 -166 226 -179 226 -4 0 -14 -6
-23 -13z m128 -674 c-5 -144 -36 -362 -45 -321 -2 9 4 70 12 135 8 65 18 169
22 231 4 61 9 112 12 112 3 0 2 -71 -1 -157z m-270 -85 c-3 -7 -5 -2 -5 12 0
14 2 19 5 13 2 -7 2 -19 0 -25z m-153 -338 c55 -11 102 -23 105 -26 16 -17
-304 26 -351 47 -39 17 137 2 246 -21z m-96 -40 c64 -11 133 -21 152 -23 19
-2 -1 -4 -45 -5 -79 -2 -228 26 -264 49 -13 8 -10 9 12 4 15 -3 80 -14 145
-25z"/>
<path d="M2125 3070 c-15 -48 -7 -185 15 -243 19 -49 137 -224 145 -215 8 9
-34 139 -57 178 -35 59 -52 138 -45 216 4 58 3 63 -20 73 -31 14 -31 14 -38
-9z"/>
<path d="M2937 2687 c-58 -37 -57 -38 39 -33 98 6 79 -1 -76 -28 -47 -8 -111
-24 -142 -35 -50 -19 -60 -28 -87 -76 -17 -30 -31 -58 -31 -61 0 -12 280 5
354 21 135 29 316 139 316 193 0 28 -11 30 -185 37 -146 6 -151 5 -188 -18z
m143 -82 c-79 -25 -381 -64 -350 -46 30 18 261 57 350 59 l45 1 -45 -14z m-40
-52 c-53 -18 -103 -26 -170 -29 l-95 -4 120 20 c66 11 136 24 155 29 69 18 63
9 -10 -16z m-273 -39 c-3 -3 -12 -4 -19 -1 -8 3 -5 6 6 6 11 1 17 -2 13 -5z"/>
<path d="M2617 2426 c-4 -10 9 -22 41 -37 26 -13 68 -45 93 -71 25 -26 54 -48
63 -48 16 0 16 2 -1 30 -24 42 -81 94 -128 119 -47 25 -61 26 -68 7z"/>
<path d="M2575 2371 c-13 -22 68 -100 103 -101 20 0 16 6 -26 40 -28 22 -55
47 -60 56 -7 12 -11 13 -17 5z"/>
<path d="M2382 2314 c-32 -32 -39 -44 -26 -44 10 0 31 12 47 28 29 27 29 27
17 2 -7 -13 -25 -34 -38 -45 -57 -45 -57 -46 -17 -30 42 16 94 69 95 96 0 15
-19 39 -29 38 -4 0 -25 -20 -49 -45z"/>
<path d="M2557 2343 c-13 -12 -7 -23 42 -72 53 -53 123 -85 211 -97 l52 -7 -7
34 c-10 45 -13 49 -35 49 -13 0 -17 -5 -14 -15 8 -19 0 -19 -38 1 -18 9 -44
14 -62 11 -29 -4 -85 12 -82 23 2 11 -61 80 -67 73z m163 -113 c8 -5 11 -10 5
-10 -5 0 -17 5 -25 10 -8 5 -10 10 -5 10 6 0 17 -5 25 -10z"/>
<path d="M2256 2224 c-38 -20 -66 -30 -63 -22 3 7 8 21 12 31 5 13 2 17 -13
17 -13 0 -24 -10 -31 -31 -17 -50 -15 -52 36 -45 43 6 99 32 148 70 l20 15
-20 0 c-11 0 -51 -16 -89 -35z"/>
<path d="M2245 2164 c-49 -18 -82 -33 -73 -33 21 -1 149 46 162 59 12 12 20
14 -89 -26z"/>
<path d="M1865 2048 c-48 -26 -60 -81 -25 -113 10 -9 49 -24 87 -31 37 -8 75
-22 85 -31 32 -29 20 -76 -27 -101 -16 -9 -16 -11 -4 -12 9 0 28 9 43 21 20
16 26 29 26 59 0 51 -30 74 -115 90 -70 13 -95 29 -95 61 0 36 36 59 91 59 43
0 55 -5 80 -30 28 -28 30 -28 27 -8 -2 13 -14 28 -28 35 -31 16 -118 16 -145
1z"/>
<path d="M2090 2045 c0 -12 6 -14 28 -8 70 18 67 23 70 -134 1 -81 7 -143 12
-143 5 0 11 62 12 143 3 158 -1 150 77 133 26 -6 32 -5 29 5 -3 11 -33 15
-116 17 -96 2 -112 0 -112 -13z"/>
<path d="M2357 2053 c-4 -3 -7 -71 -7 -150 l0 -143 105 0 c83 0 105 3 105 14
0 11 -8 12 -37 5 -21 -5 -62 -9 -90 -9 l-53 0 0 71 0 72 75 -6 c45 -4 75 -3
75 3 0 5 -33 10 -72 12 l-73 3 0 60 0 60 35 0 c19 0 59 -4 88 -7 42 -6 52 -4
52 7 0 12 -19 15 -98 15 -54 0 -102 -3 -105 -7z"/>
<path d="M2595 2049 c-12 -18 1 -21 44 -9 23 6 46 8 51 5 6 -4 10 -66 10 -146
0 -187 19 -184 22 4 3 157 0 152 71 134 21 -6 27 -4 27 8 0 12 -18 15 -109 15
-67 0 -112 -4 -116 -11z"/>
<path d="M2866 2053 c-3 -3 -6 -71 -6 -150 0 -120 2 -143 15 -143 13 0 15 23
15 144 0 132 -6 167 -24 149z"/>
<path d="M3002 2041 c-70 -45 -95 -148 -52 -219 28 -46 97 -76 153 -67 50 8
87 30 87 51 0 11 -8 9 -33 -10 -72 -55 -149 -39 -187 38 -22 47 -25 74 -10
128 24 86 131 119 191 59 33 -33 49 -25 20 10 -26 33 -123 38 -169 10z"/>
<path d="M1816 1834 c-15 -40 52 -85 124 -83 16 0 9 5 -22 13 -60 16 -81 34
-75 63 5 27 -17 32 -27 7z"/>
<path d="M2188 1629 c-37 -21 -16 -63 39 -78 45 -12 35 -36 -15 -35 -27 0 -41
-3 -39 -10 2 -6 23 -11 47 -11 76 0 83 55 10 79 -49 15 -47 41 3 40 24 -1 36
3 34 10 -5 15 -58 19 -79 5z"/>
<path d="M2366 1619 c-55 -43 -23 -129 49 -129 46 0 75 29 75 74 0 39 -37 76
-75 76 -12 0 -34 -9 -49 -21z m86 -16 c35 -32 13 -93 -34 -93 -52 0 -77 66
-36 94 29 20 47 20 70 -1z"/>
<path d="M2570 1565 c0 -43 4 -75 10 -75 6 0 10 14 10 30 0 28 3 30 35 30 19
0 35 5 35 10 0 6 -16 10 -35 10 -31 0 -35 3 -35 25 0 23 4 25 40 25 22 0 40 5
40 10 0 6 -22 10 -50 10 l-50 0 0 -75z"/>
<path d="M2720 1630 c0 -5 11 -10 25 -10 24 0 25 -2 25 -65 0 -37 4 -65 10
-65 6 0 10 28 10 65 0 63 1 65 25 65 14 0 25 5 25 10 0 6 -27 10 -60 10 -33 0
-60 -4 -60 -10z"/>
</g>
</svg>
